# xmcd CD database file
#
# Track frame offsets:
#	150
#	15293
#	25281
#	39810
#	51655
#	62782
#	74457
#	88144
#	102786
#	114887
#
# Disc length: 1673 seconds
#
# Revision: 0
# Processed by: cddbd v1.5PL3 Copyright (c) Steve Scherf et al.
# Submitted via: CDex 1.51
#
DISCID=7b06870a
DTITLE=Alberto Vazquez - Con Orquesta - Disco 2
DYEAR=1900
DGENRE=Español
TTITLE0=Por amor
TTITLE1=Caliente, caliente
TTITLE2=Estoy enamorado
TTITLE3=Uno para todas
TTITLE4=Vivir por vivir
TTITLE5=Vamos a bailar
TTITLE6=O quizas simplemente te regale una rosa
TTITLE7=Un rayo de sol
TTITLE8=Jornada sentimental
TTITLE9=Mi viejo
EXTD=
EXTT0=
EXTT1=
EXTT2=
EXTT3=
EXTT4=
EXTT5=
EXTT6=
EXTT7=
EXTT8=
EXTT9=
PLAYORDER=
